<svg viewBox="0 0 96 82" xmlns="http://www.w3.org/2000/svg"><g fill="currentColor" fill-rule="evenodd"><path d="M6.7 32L.6 11.6c-.4-1.2.3-2.4 1.5-2.7 1.2-.4 2.4.3 2.7 1.5l4.9 16.3C15.5 11.2 30.5.1 48 .1 66 .1 81.3 11.8 86.7 28c.5 1.4-.6 2.9-2.1 2.9-.9 0-1.8-.6-2.1-1.5C77.7 15 64.1 4.5 48 4.5 32.1 4.5 18.5 14.7 13.6 29l16.6-5c1.2-.4 2.4.3 2.7 1.5.4 1.2-.3 2.4-1.5 2.7L11 34.3c-1.8.6-3.7-.4-4.3-2.3zM91.2 71.6l-4.9-16.3C80.5 70.8 65.5 81.9 48 81.9 30 81.9 14.7 70.2 9.3 54c-.5-1.4.6-2.9 2.1-2.9.9 0 1.8.6 2.1 1.5C18.3 67 31.9 77.5 48 77.5c15.9 0 29.5-10.2 34.4-24.5l-16.6 5c-1.2.4-2.4-.3-2.7-1.5-.4-1.2.3-2.4 1.5-2.7L85 47.7c1.8-.6 3.8.5 4.3 2.3l6.1 20.4c.4 1.2-.3 2.4-1.5 2.7-1.1.4-2.4-.3-2.7-1.5z"/></g></svg>